<?xml version="1.0" encoding="utf-8"?>
<!-- Generator: Adobe Illustrator 15.1.0, SVG Export Plug-In . SVG Version: 6.00 Build 0)  -->
<!DOCTYPE svg PUBLIC "-//W3C//DTD SVG 1.0//EN" "http://www.w3.org/TR/2001/REC-SVG-20010904/DTD/svg10.dtd">
<svg version="1.0" id="Layer_1" xmlns="http://www.w3.org/2000/svg" xmlns:xlink="http://www.w3.org/1999/xlink" x="0px" y="0px"
	 width="300.202px" height="197.835px" viewBox="0 0 300.202 197.835" enable-background="new 0 0 300.202 197.835"
	 xml:space="preserve">
<g>
	<polyline fill-rule="evenodd" clip-rule="evenodd" fill="#034EA2" points="55.936,26.724 51.149,32.672 57.259,36.141 
		61.056,29.039 	"/>
	<polygon fill="none" stroke="#034EA2" stroke-width="0.202" stroke-miterlimit="2.613" points="55.936,26.724 51.149,32.672 
		57.259,36.141 61.056,29.039 	"/>
	<polyline fill-rule="evenodd" clip-rule="evenodd" fill="#034EA2" points="85.332,43.902 80.051,50.015 85.5,54.304 90.453,46.214 
			"/>
	<polygon fill="none" stroke="#034EA2" stroke-width="0.202" stroke-miterlimit="2.613" points="85.332,43.902 80.051,50.015 
		85.5,54.304 90.453,46.214 	"/>
	<polyline fill-rule="evenodd" clip-rule="evenodd" fill="#034EA2" points="112.683,65.206 104.988,73.545 110.398,79.909 
		117.208,69.08 	"/>
	<polygon fill="none" stroke="#034EA2" stroke-width="0.202" stroke-miterlimit="2.613" points="112.683,65.206 104.988,73.545 
		110.398,79.909 117.208,69.08 	"/>
	<path fill-rule="evenodd" clip-rule="evenodd" fill="#034EA2" d="M213.708,66.479l83.577-17.021
		c2.464,4.389,3.039,8.751,0.31,13.614l-62.527,16.097l3.401,5.883l59.126-17.641c3.441,4.714,3.34,9.665-0.31,14.853
		l-50.456,18.886"/>
	<path fill="none" stroke="#034EA2" stroke-width="0.202" stroke-miterlimit="2.613" d="M213.708,66.479l83.577-17.021
		c2.464,4.389,3.039,8.751,0.31,13.614l-62.527,16.097l3.401,5.883l59.126-17.641c3.441,4.714,3.34,9.665-0.31,14.853
		l-50.456,18.886L213.708,66.479z"/>
	<path fill-rule="evenodd" clip-rule="evenodd" fill="#BACAD3" d="M223.139,195.639c-59.25,3.316-118.499,0.829-177.749-5.634
		c61.589-19.223,96.469-46.417,95.115-79.849c-13.639-46.643-51.9-74.219-101.355-93.131l7.363-12.561
		c61.415,5.593,115.882,27.611,164.598,63.243c34.362,22.901,48.512,47.696,45.914,74.069
		C249.99,160.793,239.416,178.927,223.139,195.639"/>
	<path fill-rule="evenodd" clip-rule="evenodd" fill="#034EA2" d="M127.375,84.707L0.743,110.099l-0.642,39.529
		c0.783,3.579,3.994,4.908,12.533,1.287l125.027-39.529l-6.106-26.679"/>
	<path fill="none" stroke="#034EA2" stroke-width="0.202" stroke-miterlimit="2.613" d="M127.375,84.707L0.743,110.099
		l-0.642,39.529c0.783,3.579,3.994,4.908,12.533,1.287l125.027-39.529l-6.106-26.679H127.375z"/>
	<path fill="#FFFFFF" d="M115.169,96.408c2.919-0.703,5.864-1.406,8.842-2.12c0.019,0.756,0.034,1.513,0.057,2.265
		c-0.714,0.172-1.431,0.34-2.147,0.509c0.063,2.471,0.126,4.946,0.188,7.418c0.063,2.482,0.126,4.966,0.185,7.445
		c-1.245,0.274-2.481,0.542-3.694,0.81c-0.061-2.476-0.121-4.943-0.18-7.415c-0.059-2.46-0.12-4.928-0.18-7.392
		c-1.021,0.245-2.019,0.481-3.016,0.723C115.21,97.901,115.191,97.149,115.169,96.408 M109.327,107.871
		c0.015,0.661,0.019,1.314,0.034,1.968c-1.429,1.139-2.859,2.272-4.259,3.399c-1.4,1.119-2.813,2.246-4.198,3.358
		c-0.672-0.585-1.333-1.173-1.994-1.762c1.709-1.142,3.445-2.299,5.17-3.453C105.801,110.229,107.562,109.044,109.327,107.871
		 M105.826,110.732c-2.294,0.497-3.818-0.076-4.766-0.89c-0.941-0.803-1.329-1.86-1.337-2.368c-0.015-0.859-0.036-1.716-0.055-2.571
		c-0.016-0.852-0.035-1.707-0.042-2.563c-0.842,0.195-1.675,0.401-2.5,0.593c-0.011-0.729-0.027-1.46-0.044-2.197
		c5.789-1.383,11.701-2.804,17.688-4.236c0.021,0.749,0.04,1.498,0.055,2.243c-0.691,0.164-1.396,0.324-2.085,0.492
		c0.055,2.445,0.115,4.894,0.174,7.342c0.053,2.449,0.109,4.905,0.16,7.361c-1.178,0.256-2.355,0.508-3.522,0.768
		c-0.019-0.936-0.042-1.871-0.065-2.808c-0.017-0.936-0.04-1.875-0.059-2.808C108.231,110.026,107.496,110.374,105.826,110.732
		 M109.231,100.063c-2.076,0.497-4.137,0.978-6.192,1.467c0.021,0.887,0.04,1.765,0.055,2.64c0.019,0.883,0.044,1.765,0.059,2.647
		c0.027,1.219,0.825,2.23,2.792,1.826c1.858-0.394,3.306-2.124,3.415-2.483c-0.023-1.023-0.038-2.04-0.059-3.052
		C109.279,102.096,109.256,101.08,109.231,100.063z M80.192,104.785c2.664-0.634,5.359-1.283,8.062-1.929
		c0.015,0.726,0.03,1.447,0.047,2.169c-0.663,0.153-1.302,0.31-1.952,0.459c0.034,2.368,0.078,4.744,0.116,7.104
		c0.044,2.373,0.09,4.752,0.134,7.132c-1.131,0.237-2.25,0.485-3.377,0.729c-0.042-2.364-0.082-4.732-0.112-7.093
		c-0.031-2.361-0.083-4.718-0.126-7.075c-0.926,0.222-1.841,0.439-2.758,0.653C80.219,106.222,80.208,105.507,80.192,104.785
		 M77.86,107.497c0.021,1.333,0.033,2.666,0.056,3.996c0.03,2.112-2.504,3.499-4.479,3.953c0.004,0.062,1.31,1.486,2.16,2.136
		c1.291,0.989,3.293,2.36,3.438,2.326c-0.791,0.703-1.572,1.402-2.363,2.101c-0.04,0.008-0.779-0.488-1.814-1.313
		c-1.033-0.817-2.395-1.964-3.698-3.235c-0.876-0.853-1.833-1.88-2.569-2.686c-0.743-0.799-1.26-1.395-1.26-1.395
		c0.791-0.638,1.616-1.287,2.433-1.933c0,0,1.358,2.644,3.646,1.956c1.311-0.394,1.221-1.528,1.221-1.594
		c-0.015-1.176-0.033-2.356-0.056-3.533c-2.976,0.707-5.93,1.402-8.853,2.098c-0.011-0.703-0.019-1.406-0.031-2.109
		c4.749-1.134,9.556-2.292,14.43-3.461c0.011,0.719,0.029,1.437,0.04,2.147C79.382,107.142,78.613,107.317,77.86,107.497
		 M50.139,111.993c2.449-0.584,4.934-1.181,7.432-1.776c0.01,0.691,0.006,1.387,0.013,2.082c-0.6,0.142-1.197,0.286-1.795,0.428
		c0.026,2.276,0.053,4.554,0.082,6.826c0.026,2.284,0.049,4.565,0.065,6.854c-1.035,0.222-2.069,0.454-3.094,0.676
		c-0.027-2.276-0.05-4.554-0.073-6.822c-0.025-2.27-0.04-4.538-0.063-6.804c-0.857,0.203-1.713,0.405-2.559,0.604
		C50.154,113.376,50.143,112.685,50.139,111.993 M47.969,114.575c0.012,1.284,0.023,2.563,0.035,3.851
		c0.023,2.028-2.323,3.335-4.154,3.755c0,0.058,1.201,1.437,1.986,2.074c1.182,0.959,3.018,2.3,3.134,2.273
		c-0.724,0.665-1.459,1.337-2.172,1.998c-0.038,0.008-0.714-0.481-1.666-1.284c-0.951-0.798-2.206-1.905-3.396-3.14
		c-0.799-0.833-1.673-1.826-2.352-2.605c-0.672-0.783-1.153-1.359-1.153-1.359c0.75-0.604,1.499-1.219,2.257-1.834
		c0,0,1.228,2.556,3.345,1.914c1.216-0.367,1.138-1.459,1.138-1.521c-0.012-1.131-0.023-2.269-0.031-3.399
		c-2.747,0.649-5.466,1.295-8.176,1.937c-0.004-0.68-0.012-1.356-0.016-2.032c4.385-1.047,8.828-2.112,13.314-3.186
		c0.008,0.684,0.018,1.375,0.025,2.059C49.376,114.243,48.668,114.411,47.969,114.575 M22.366,118.651
		c2.276-0.546,4.561-1.093,6.87-1.646c0.004,0.669,0.011,1.337,0.015,2.006c-0.552,0.13-1.104,0.26-1.667,0.394
		c0.01,2.188,0.025,4.385,0.033,6.574c0.015,2.2,0.023,4.4,0.034,6.601c-0.953,0.206-1.916,0.412-2.871,0.627
		c-0.008-2.193-0.008-4.382-0.015-6.578c-0.012-2.178-0.023-4.366-0.031-6.544c-0.787,0.188-1.582,0.37-2.359,0.554
		C22.375,119.977,22.371,119.316,22.366,118.651 M15.568,120.282c2.229-0.534,4.479-1.069,6.74-1.619
		c0.004,0.664,0.008,1.333,0.008,1.994c-0.537,0.126-1.089,0.256-1.627,0.386c0.004,2.166,0.016,4.343,0.019,6.513
		c0.012,2.17,0.008,4.354,0.016,6.532c-0.942,0.202-1.874,0.413-2.8,0.615c-0.007-2.174-0.015-4.344-0.019-6.506
		c-0.008-2.166-0.015-4.331-0.021-6.493c-0.773,0.183-1.545,0.37-2.311,0.546C15.572,121.593,15.568,120.939,15.568,120.282
		 M9.502,125.443c-0.615,0.142-1.232,0.286-1.832,0.428c-0.445-0.886-0.247-1.94,0.34-2.846c0.588-0.897,1.549-1.654,2.649-1.918
		c2.12-0.512,3.622,0.451,3.625,2.242c0,1.204,0.003,2.415,0.007,3.614c1.291-0.298,2.583-0.596,3.9-0.895
		c0,0.669,0.004,1.342,0.004,2.006c-1.318,0.302-2.609,0.596-3.9,0.894c0,0.681,0.006,1.353,0.006,2.029
		c0,0.122,0,0.855-1.056,1.092c-0.317,0.069-1.377-0.523-2.34-1.207c-0.974-0.684-1.851-1.451-1.851-1.741
		c0-0.91,0.682-1.127,0.682-1.127c0.632-0.146,1.27-0.295,1.912-0.439c0-0.649,0-1.299,0-1.948s-0.003-1.299-0.003-1.948
		c0-1.371-2.378-0.573-2.378,0.737C9.267,124.824,9.502,125.386,9.502,125.443"/>
	<path fill="none" stroke="#FFFFFF" stroke-width="0.187" stroke-miterlimit="2.613" d="M115.169,96.408
		c2.919-0.703,5.864-1.406,8.842-2.12c0.019,0.756,0.034,1.513,0.057,2.265c-0.714,0.172-1.431,0.34-2.147,0.509
		c0.063,2.471,0.126,4.946,0.188,7.418c0.063,2.482,0.126,4.966,0.185,7.445c-1.245,0.274-2.481,0.542-3.694,0.81
		c-0.061-2.476-0.121-4.943-0.18-7.415c-0.059-2.46-0.12-4.928-0.18-7.392c-1.021,0.245-2.019,0.481-3.016,0.723
		C115.21,97.901,115.191,97.149,115.169,96.408z M109.327,107.871c0.015,0.661,0.019,1.314,0.034,1.968
		c-1.429,1.139-2.859,2.272-4.259,3.399c-1.4,1.119-2.813,2.246-4.198,3.358c-0.672-0.585-1.333-1.173-1.994-1.762
		c1.709-1.142,3.445-2.299,5.17-3.453C105.801,110.229,107.562,109.044,109.327,107.871 M105.826,110.732
		c-2.294,0.497-3.818-0.076-4.766-0.89c-0.941-0.803-1.329-1.86-1.337-2.368c-0.015-0.859-0.036-1.716-0.055-2.571
		c-0.016-0.852-0.035-1.707-0.042-2.563c-0.842,0.195-1.675,0.401-2.5,0.593c-0.011-0.729-0.027-1.46-0.044-2.197
		c5.789-1.383,11.701-2.804,17.688-4.236c0.021,0.749,0.04,1.498,0.055,2.243c-0.691,0.164-1.396,0.324-2.085,0.492
		c0.055,2.445,0.115,4.894,0.174,7.342c0.053,2.449,0.109,4.905,0.16,7.361c-1.178,0.256-2.355,0.508-3.522,0.768
		c-0.019-0.936-0.042-1.871-0.065-2.808c-0.017-0.936-0.04-1.875-0.059-2.808C108.231,110.026,107.496,110.374,105.826,110.732
		 M109.231,100.063c-2.076,0.497-4.137,0.978-6.192,1.467c0.021,0.887,0.04,1.765,0.055,2.64c0.019,0.883,0.044,1.765,0.059,2.647
		c0.027,1.219,0.825,2.23,2.792,1.826c1.858-0.394,3.306-2.124,3.415-2.483c-0.023-1.023-0.038-2.04-0.059-3.052
		C109.279,102.096,109.256,101.08,109.231,100.063z M80.192,104.785c2.664-0.634,5.359-1.283,8.062-1.929
		c0.015,0.726,0.03,1.447,0.047,2.169c-0.663,0.153-1.302,0.31-1.952,0.459c0.034,2.368,0.078,4.744,0.116,7.104
		c0.044,2.373,0.09,4.752,0.134,7.132c-1.131,0.237-2.25,0.485-3.377,0.729c-0.042-2.364-0.082-4.732-0.112-7.093
		c-0.031-2.361-0.083-4.718-0.126-7.075c-0.926,0.222-1.841,0.439-2.758,0.653C80.219,106.222,80.208,105.507,80.192,104.785
		 M77.86,107.497c0.021,1.333,0.033,2.666,0.056,3.996c0.03,2.112-2.504,3.499-4.479,3.953c0.004,0.062,1.31,1.486,2.16,2.136
		c1.291,0.989,3.293,2.36,3.438,2.326c-0.791,0.703-1.572,1.402-2.363,2.101c-0.04,0.008-0.779-0.488-1.814-1.313
		c-1.033-0.817-2.395-1.964-3.698-3.235c-0.876-0.853-1.833-1.88-2.569-2.686c-0.743-0.799-1.26-1.395-1.26-1.395
		c0.791-0.638,1.616-1.287,2.433-1.933c0,0,1.358,2.644,3.646,1.956c1.311-0.394,1.221-1.528,1.221-1.594
		c-0.015-1.176-0.033-2.356-0.056-3.533c-2.976,0.707-5.93,1.402-8.853,2.098c-0.011-0.703-0.019-1.406-0.031-2.109
		c4.749-1.134,9.556-2.292,14.43-3.461c0.011,0.719,0.029,1.437,0.04,2.147C79.382,107.142,78.613,107.317,77.86,107.497
		 M50.139,111.993c2.449-0.584,4.934-1.181,7.432-1.776c0.01,0.691,0.006,1.387,0.013,2.082c-0.6,0.142-1.197,0.286-1.795,0.428
		c0.026,2.276,0.053,4.554,0.082,6.826c0.026,2.284,0.049,4.565,0.065,6.854c-1.035,0.222-2.069,0.454-3.094,0.676
		c-0.027-2.276-0.05-4.554-0.073-6.822c-0.025-2.27-0.04-4.538-0.063-6.804c-0.857,0.203-1.713,0.405-2.559,0.604
		C50.154,113.376,50.143,112.685,50.139,111.993 M47.969,114.575c0.012,1.284,0.023,2.563,0.035,3.851
		c0.023,2.028-2.323,3.335-4.154,3.755c0,0.058,1.201,1.437,1.986,2.074c1.182,0.959,3.018,2.3,3.134,2.273
		c-0.724,0.665-1.459,1.337-2.172,1.998c-0.038,0.008-0.714-0.481-1.666-1.284c-0.951-0.798-2.206-1.905-3.396-3.14
		c-0.799-0.833-1.673-1.826-2.352-2.605c-0.672-0.783-1.153-1.359-1.153-1.359c0.75-0.604,1.499-1.219,2.257-1.834
		c0,0,1.228,2.556,3.345,1.914c1.216-0.367,1.138-1.459,1.138-1.521c-0.012-1.131-0.023-2.269-0.031-3.399
		c-2.747,0.649-5.466,1.295-8.176,1.937c-0.004-0.68-0.012-1.356-0.016-2.032c4.385-1.047,8.828-2.112,13.314-3.186
		c0.008,0.684,0.018,1.375,0.025,2.059C49.376,114.243,48.668,114.411,47.969,114.575 M22.366,118.651
		c2.276-0.546,4.561-1.093,6.87-1.646c0.004,0.669,0.011,1.337,0.015,2.006c-0.552,0.13-1.104,0.26-1.667,0.394
		c0.01,2.188,0.025,4.385,0.033,6.574c0.015,2.2,0.023,4.4,0.034,6.601c-0.953,0.206-1.916,0.412-2.871,0.627
		c-0.008-2.193-0.008-4.382-0.015-6.578c-0.012-2.178-0.023-4.366-0.031-6.544c-0.787,0.188-1.582,0.37-2.359,0.554
		C22.375,119.977,22.371,119.316,22.366,118.651 M15.568,120.282c2.229-0.534,4.479-1.069,6.74-1.619
		c0.004,0.664,0.008,1.333,0.008,1.994c-0.537,0.126-1.089,0.256-1.627,0.386c0.004,2.166,0.016,4.343,0.019,6.513
		c0.012,2.17,0.008,4.354,0.016,6.532c-0.942,0.202-1.874,0.413-2.8,0.615c-0.007-2.174-0.015-4.344-0.019-6.506
		c-0.008-2.166-0.015-4.331-0.021-6.493c-0.773,0.183-1.545,0.37-2.311,0.546C15.572,121.593,15.568,120.939,15.568,120.282
		 M9.502,125.443c-0.615,0.142-1.232,0.286-1.832,0.428c-0.445-0.886-0.247-1.94,0.34-2.846c0.588-0.897,1.549-1.654,2.649-1.918
		c2.12-0.512,3.622,0.451,3.625,2.242c0,1.204,0.003,2.415,0.007,3.614c1.291-0.298,2.583-0.596,3.9-0.895
		c0,0.669,0.004,1.342,0.004,2.006c-1.318,0.302-2.609,0.596-3.9,0.894c0,0.681,0.006,1.353,0.006,2.029
		c0,0.122,0,0.855-1.056,1.092c-0.317,0.069-1.377-0.523-2.34-1.207c-0.974-0.684-1.851-1.451-1.851-1.741
		c0-0.91,0.682-1.127,0.682-1.127c0.632-0.146,1.27-0.295,1.912-0.439c0-0.649,0-1.299,0-1.948s-0.003-1.299-0.003-1.948
		c0-1.371-2.378-0.573-2.378,0.737C9.267,124.824,9.502,125.386,9.502,125.443"/>
	<polyline fill-rule="evenodd" clip-rule="evenodd" fill="#034EA2" points="135.952,116.401 0.63,160.587 0.63,192.935 
		128.349,143.753 138.049,117.452 	"/>
	<polygon fill="none" stroke="#034EA2" stroke-width="0.202" stroke-miterlimit="2.613" points="135.952,116.401 0.63,160.587 
		0.63,192.935 128.349,143.753 138.049,117.452 	"/>
	<path fill-rule="evenodd" clip-rule="evenodd" fill="#034EA2" d="M249.411,161.438l11.112,11.14l-4.396,7.434l-10.883-12.071
		 M236.434,181.23l9.39,12.632l-4.37,3.347l-10.081-10.142L236.434,181.23z"/>
	<path fill="none" stroke="#034EA2" stroke-width="0.202" stroke-miterlimit="2.613" d="M249.411,161.438l11.112,11.14l-4.396,7.434
		l-10.883-12.071L249.411,161.438z M236.434,181.23l9.39,12.632l-4.37,3.347l-10.081-10.142L236.434,181.23z"/>
	<path fill="#FFFFFF" d="M82.446,156.504c0-3.117,0-6.23,0-9.34c0-3.113,0-6.23,0-9.344c0.837-0.26,1.662-0.516,2.491-0.775
		c0,3.09,0,6.185,0,9.274c0,3.087,0,6.185,0,9.271C84.107,155.896,83.283,156.198,82.446,156.504 M67.136,154.097
		c2.315-0.794,4.599-1.581,6.86-2.36c-0.348-0.761-0.695-1.524-1.041-2.296c-0.344-0.771-0.695-1.535-1.044-2.312
		c-0.632-1.413-1.118-2.59-1.423-3.537c-0.262,1.322-0.626,2.674-1.108,4.05c-0.371,1.073-0.739,2.146-1.118,3.22
		C67.886,151.935,67.51,153.02,67.136,154.097 M61.096,164.315c1.349-3.786,2.699-7.549,4.032-11.28
		c1.328-3.698,2.653-7.384,3.963-11.036c0.97-0.306,1.929-0.604,2.89-0.905c1.358,2.773,2.716,5.523,4.049,8.247
		c1.326,2.705,2.661,5.391,3.975,8.057c-0.962,0.352-1.944,0.707-2.918,1.069c-0.384-0.821-0.775-1.643-1.15-2.464
		c-0.38-0.829-0.75-1.654-1.134-2.482c-2.781,0.97-5.594,1.955-8.454,2.952c-0.378,1.123-0.766,2.242-1.146,3.369
		c-0.375,1.127-0.758,2.258-1.142,3.389C63.075,163.59,62.089,163.948,61.096,164.315z M41.009,171.665c0-3.48,0-6.964,0-10.444
		c0-3.479,0-6.96,0-10.447c1.041-0.324,2.082-0.649,3.109-0.97c0,1.421,0,2.838,0,4.259c0,1.413,0,2.838,0,4.252
		c3.99-1.337,7.906-2.644,11.731-3.924c0-1.375,0-2.75,0-4.129c0-1.375,0-2.75,0-4.126c0.974-0.302,1.925-0.604,2.884-0.901
		c0,3.327,0,6.654,0,9.978c0,3.324,0,6.644,0,9.971c-0.958,0.348-1.91,0.699-2.884,1.047c0-1.57,0-3.152,0-4.729
		c0-1.574,0-3.155,0-4.736c-3.826,1.306-7.741,2.64-11.731,4.003c0,1.627,0,3.255,0,4.882s0,3.255,0,4.882
		C43.091,170.905,42.05,171.283,41.009,171.665 M15.471,181.013c0-3.709,0-7.423,0-11.124c0-3.705,0-7.422,0-11.128
		c1.205-0.378,2.408-0.752,3.613-1.127c2.292,2.155,4.569,4.286,6.8,6.392c2.214,2.085,4.423,4.141,6.589,6.181
		c0-2.797,0-5.593,0-8.381c0-2.793,0-5.589,0-8.382c1.045-0.324,2.086-0.649,3.123-0.974c0,3.529,0,7.063,0,10.593
		c0,3.525,0,7.056,0,10.585c-1.112,0.405-2.222,0.813-3.337,1.219c-2.168-2.01-4.37-4.049-6.595-6.108
		c-2.246-2.078-4.509-4.194-6.818-6.326c0,2.896,0,5.784,0,8.676s0,5.783,0,8.667C17.719,180.191,16.594,180.604,15.471,181.013"/>
	<path fill-rule="evenodd" clip-rule="evenodd" fill="#FFF200" d="M154.345,190.089c20.301-25.15,27.71-47.54,29.33-68.684
		c1.016-13.331,0.384-20.788-5.438-32.782C157.733,46.42,110.085,20.864,44.185,8.655l-2.762,4.496
		c59.25,7.915,120.633,38.57,135.915,86.553c5.9,25.728-6.16,55.604-26.385,87.367C151.221,189.118,152.346,190.123,154.345,190.089
		"/>
	<path fill-rule="evenodd" clip-rule="evenodd" fill="#FFFFFF" d="M214.483,157.184c1.576-5.345,2.676-10.616,3.266-15.818
		l-7.443-0.891c-0.596,4.668-1.799,9.367-2.907,14.283"/>
	<path fill-rule="evenodd" clip-rule="evenodd" fill="#FFFFFF" d="M218.156,127.533c-0.298-5.027-1.094-9.989-2.393-14.867
		l-6.259,2.376c0.884,4.324,1.369,8.725,1.463,13.209"/>
	<path fill-rule="evenodd" clip-rule="evenodd" fill="#FFFFFF" d="M205.357,101.618c-1.4-3.354-3.067-6.654-5.002-9.913l4.036-3.777
		c2.649,3.973,4.913,8.007,6.8,12.098"/>
	<path fill-rule="evenodd" clip-rule="evenodd" fill="#FFFFFF" d="M174.232,56.871c-4.188-3.205-8.622-6.471-13.496-9.481
		l-2.289,3.442c5.18,3.441,9.951,6.922,14.329,10.436"/>
	<path fill-rule="evenodd" clip-rule="evenodd" fill="#FFFFFF" d="M149.333,40.973c-2.565-2.38-8.574-6.234-11.918-7.426
		c-1.048,1.26-1.602,2.528-1.666,3.789c3.837,2.059,7.514,4.129,11.034,6.204C148.13,42.806,148.978,41.946,149.333,40.973"/>
	<path fill-rule="evenodd" clip-rule="evenodd" fill="#FFFFFF" d="M126.013,28.022c-4.701-2.127-9.598-4.213-14.621-6.363
		l-1.511,3.018c5.325,2.388,10.421,4.794,15.292,7.208"/>
	<path fill-rule="evenodd" clip-rule="evenodd" fill="#FFFFFF" d="M197.675,179.912c2.322-4.339,4.301-8.61,5.921-12.797
		l5.923,3.599c-1.597,3.659-3.411,7.357-5.441,11.082"/>
	<path fill-rule="evenodd" clip-rule="evenodd" fill="#FFFFFF" d="M196.701,77.805c-3.538-4.141-7.523-8.209-11.955-12.209
		l-2.726,3.717c1.979,1.868,3.853,3.752,5.617,5.643c1.326,1.425,2.588,2.861,3.797,4.294c0.403,0.48,0.802,0.958,1.19,1.436"/>
	<path fill-rule="evenodd" clip-rule="evenodd" fill="#FFFFFF" d="M145.032,158.031c2.737-4.045,5.121-8.14,7.13-12.254
		l-4.169-4.298c-1.937,4.676-4.333,9.26-7.159,13.71"/>
	<path fill-rule="evenodd" clip-rule="evenodd" fill="#FFFFFF" d="M149.389,77.029c-2.516-3.969-5.48-7.857-8.91-11.651l-3.751,3.48
		c3.079,3.747,5.715,7.571,7.925,11.448"/>
	<path fill-rule="evenodd" clip-rule="evenodd" fill="#FFFFFF" d="M119.543,47.413c3.994,2.724,7.682,5.535,11.066,8.427
		l-3.098,3.289c-3.274-3.029-6.823-6.07-10.824-8.866"/>
	<path fill-rule="evenodd" clip-rule="evenodd" fill="#FFFFFF" d="M92.24,35.716c4.569,2.231,8.914,4.462,12.877,6.938l2.907-2.388
		c-4.366-2.456-9.013-4.832-13.958-7.104"/>
	<path fill-rule="evenodd" clip-rule="evenodd" fill="#FFFFFF" d="M127.002,179.152c3.666-3.515,7.05-7.102,10.132-10.738
		l-3.418-3.361c-2.934,3.605-6.154,7.098-9.642,10.447"/>
	<path fill-rule="evenodd" clip-rule="evenodd" fill="#FFFFFF" d="M156.947,133.767c1.893-6.093,2.964-12.208,3.195-18.286
		l-6.435-0.466c-0.109,5.623-0.93,11.23-2.409,16.751"/>
	<path fill-rule="evenodd" clip-rule="evenodd" fill="#FFFFFF" d="M159.586,104.235c-0.84-6.09-2.569-12.102-5.214-17.988
		l-5.428,2.918c1.99,4.966,3.337,9.989,4.08,15.024"/>
	<path fill-rule="evenodd" clip-rule="evenodd" fill="#034EA2" d="M34.723,188.549c160.784-44.27,106.382-127.525,2.672-168.75
		c-1.877-3.4-0.019-5.528,3.169-5.497c58.577,22.48,98.221,56.107,101.038,93.413c3.711,38.425-30.094,67.843-105.091,87.382
		C33.543,193.672,32.263,191.708,34.723,188.549"/>
	<path fill="none" stroke="#034EA2" stroke-width="0.202" stroke-miterlimit="2.613" d="M34.723,188.549
		c160.784-44.27,106.382-127.525,2.672-168.75c-1.877-3.4-0.019-5.528,3.169-5.497c58.577,22.48,98.221,56.107,101.038,93.413
		c3.711,38.425-30.094,67.843-105.091,87.382C33.543,193.672,32.263,191.708,34.723,188.549z"/>
	<path fill-rule="evenodd" clip-rule="evenodd" fill="#034EA2" d="M110.547,87.988c-18.949-26.595-46.756-47.646-80.28-62.292
		c-0.546-2.521-0.019-4.156,2.884-3.847c35.13,15.421,62.636,37.104,83.201,64.478"/>
	<path fill="none" stroke="#034EA2" stroke-width="0.202" stroke-miterlimit="2.613" d="M110.547,87.988
		c-18.949-26.595-46.756-47.646-80.28-62.292c-0.546-2.521-0.019-4.156,2.884-3.847c35.13,15.421,62.636,37.104,83.201,64.478
		L110.547,87.988z"/>
	<path fill-rule="evenodd" clip-rule="evenodd" fill="#034EA2" d="M257.049,111.527c18.213,31.183,14.43,59.427-4.394,85.659
		h-11.574c19.871-19.153,26.963-41.229,18.598-66.506c-0.447-1.345-0.94-2.705-1.467-4.064c-0.228-2.949-0.455-5.902-0.683-8.854
		l-0.242-3.137 M224.218,196.785c23.396-25.632,35.401-47.888,36.227-66.476c0.25-5.703-0.54-11.055-2.382-16.059
		c-1.257-3.423-3.008-6.682-5.239-9.771c-1.904-2.64-4.145-5.107-6.285-7.549C201.147,45.343,136.164,10.581,47.476,0.103
		c-3.807,1.154-4.549,4.092-2.242,6.517c79.3,7.755,145.443,39.487,195.746,92.447c7.531,7.931,11.966,13.206,13.007,24.906
		c2.113,23.76-12.701,46.771-35.701,72.751C219.354,197.896,221.329,198.21,224.218,196.785z"/>
	<path fill="none" stroke="#034EA2" stroke-width="0.202" stroke-miterlimit="2.613" d="M257.049,111.527
		c18.213,31.183,14.43,59.427-4.394,85.659h-11.574c19.871-19.153,26.963-41.229,18.598-66.506c-0.447-1.345-0.94-2.705-1.467-4.064
		c-0.228-2.949-0.455-5.902-0.683-8.854l-0.242-3.137L257.049,111.527z M224.218,196.785c23.396-25.632,35.401-47.888,36.227-66.476
		c0.25-5.703-0.54-11.055-2.382-16.059c-1.257-3.423-3.008-6.682-5.239-9.771c-1.904-2.64-4.145-5.107-6.285-7.549
		C201.147,45.343,136.164,10.581,47.476,0.103c-3.807,1.154-4.549,4.092-2.242,6.517c79.3,7.755,145.443,39.487,195.746,92.447
		c7.531,7.931,11.966,13.206,13.007,24.906c2.113,23.76-12.701,46.771-35.701,72.751
		C219.354,197.896,221.329,198.21,224.218,196.785z"/>
	<polyline fill-rule="evenodd" clip-rule="evenodd" fill="#034EA2" points="255.865,114.189 257.933,113.804 261.864,126.031 
		260.253,132.499 254.51,129.584 	"/>
	<polygon fill="none" stroke="#034EA2" stroke-width="0.202" stroke-miterlimit="2.613" points="255.865,114.189 257.933,113.804 
		261.864,126.031 260.253,132.499 254.51,129.584 	"/>
</g>
</svg>
